# xmcd
#
# Track frame offsets:
#	150
#	14562
#	29482
#	45224
#	56146
#	72689
#	89003
#	102530
#	115904
#	127453
#	140374
#	155984
#
# Disc length: 2250 seconds
#
# Revision: 0
# Processed by: cddbd v1.5.1PL2 Copyright (c) Steve Scherf et al.
# Submitted via: EasyCDDAExtractor 8.2.3.1
#
DISCID=be08c80c
DTITLE=Jacó e Jacózinha - Mãezinha Querida
DYEAR=1977
DGENRE=Sertanejo
TTITLE0=Mãezinha querida
TTITLE1=Estrelinha do céu
TTITLE2=Apartamento 37
TTITLE3=Lembrei de ti
TTITLE4=Potro pagão
TTITLE5=Companheiro do Ferreirinha
TTITLE6=Tempo de criança
TTITLE7=Seu pai me disse
TTITLE8=Os três santos
TTITLE9=Padrinho de casamento
TTITLE10=Muleta de arueira
TTITLE11=Artista sincero
EXTD=
EXTT0=
EXTT1=
EXTT2=
EXTT3=
EXTT4=
EXTT5=
EXTT6=
EXTT7=
EXTT8=
EXTT9=
EXTT10=
EXTT11=
PLAYORDER=
